<svg xmlns="http://www.w3.org/2000/svg" width="22" height="22" viewBox="0 0 22 22" fill="none">
  <g clip-path="url(#clip0_3_19)">
    <path fill-rule="evenodd" clip-rule="evenodd" d="M11.0031 7.39844C11.1493 7.38654 11.2856 7.32039 11.385 7.21314C11.4844 7.10588 11.5395 6.96537 11.5395 6.81952C11.5395 6.67367 11.4844 6.53315 11.385 6.42589C11.2856 6.31864 11.1493 6.25249 11.0031 6.24059C10.8649 6.2412 10.7296 6.20101 10.6144 6.12511C10.4992 6.04921 10.4093 5.94101 10.3559 5.81421C10.3026 5.68742 10.2883 5.54774 10.3149 5.41286C10.3414 5.27798 10.4076 5.15397 10.5051 5.05655C10.6026 4.95912 10.7269 4.89265 10.8624 4.86556C10.9979 4.83848 11.1384 4.85199 11.2662 4.90439C11.3939 4.95679 11.5032 5.04572 11.5801 5.15992C11.657 5.27411 11.6981 5.40844 11.6982 5.54588C11.6962 5.62278 11.7097 5.6993 11.7379 5.77093C11.7661 5.84256 11.8084 5.90785 11.8624 5.96294C11.9164 6.01804 11.9809 6.06183 12.0522 6.09173C12.1234 6.12163 12.2 6.13703 12.2774 6.13703C12.3547 6.13703 12.4313 6.12163 12.5026 6.09173C12.5738 6.06183 12.6384 6.01804 12.6923 5.96294C12.7463 5.90785 12.7887 5.84256 12.8169 5.77093C12.8451 5.6993 12.8586 5.62278 12.8566 5.54588C12.8547 5.18171 12.7445 4.82625 12.5397 4.52435C12.3349 4.22245 12.0448 3.98764 11.7059 3.84956C11.3671 3.71147 10.9947 3.67629 10.6358 3.74846C10.2769 3.82063 9.94754 3.99691 9.68926 4.25506C9.43098 4.51321 9.25539 4.84167 9.18462 5.19897C9.11386 5.55627 9.15111 5.92642 9.29166 6.26269C9.43222 6.59896 9.66978 6.8863 9.97437 7.08843C10.279 7.29056 10.6369 7.39844 11.0031 7.39844ZM18.9811 4.88834H18.0077C17.856 4.89224 17.7118 4.95493 17.6058 5.06304C17.4999 5.17115 17.4406 5.31612 17.4406 5.46707C17.4406 5.61802 17.4999 5.763 17.6058 5.87111C17.7118 5.97922 17.856 6.0419 18.0077 6.04581H18.9811C19.4766 6.04642 19.9517 6.24245 20.3021 6.5909C20.6524 6.93936 20.8495 7.41178 20.8502 7.90457V12.0666H15.6874C15.6109 12.0668 15.5353 12.082 15.4647 12.1113C15.3942 12.1406 15.3302 12.1834 15.2764 12.2374C15.2225 12.2914 15.1799 12.3554 15.151 12.4258C15.1221 12.4961 15.1075 12.5715 15.108 12.6475V17.7204H8.25915C8.15944 17.3469 7.9626 17.0061 7.68844 16.7323C7.41428 16.4585 7.07245 16.2613 6.69735 16.1606V12.742C6.68966 12.5772 6.62541 12.4199 6.51531 12.2965C6.4052 12.173 6.25589 12.0908 6.09225 12.0635H1.15685V7.90612C1.15747 7.41333 1.35458 6.94091 1.70496 6.59245C2.05533 6.244 2.53037 6.04797 3.02588 6.04736H3.98025C4.13198 6.04345 4.27618 5.98077 4.38211 5.87266C4.48804 5.76455 4.54732 5.61957 4.54732 5.46862C4.54732 5.31767 4.48804 5.17269 4.38211 5.06459C4.27618 4.95648 4.13198 4.89379 3.98025 4.88989H3.02588C2.22251 4.89194 1.45277 5.21081 0.88551 5.77656C0.318248 6.3423 -0.000208647 7.10871 2.29096e-07 7.90767V19.9277C-0.000311788 20.7267 0.3181 21.4932 0.885372 22.059C1.45264 22.6249 2.22245 22.9438 3.02588 22.9458H18.9827C19.7862 22.9439 20.5562 22.625 21.1236 22.0592C21.691 21.4934 22.0096 20.7268 22.0093 19.9277V7.90612C22.0095 7.10679 21.6906 6.34009 21.1229 5.7743C20.5552 5.20851 19.7849 4.88988 18.9811 4.88834ZM1.15685 13.2222H5.54089V16.1714C5.17297 16.2765 4.83873 16.4747 4.5708 16.7465C4.30287 17.0184 4.1104 17.3548 4.01218 17.7227H1.15685V13.2222ZM5.54089 21.7884H3.02432C2.52881 21.7877 2.05378 21.5917 1.7034 21.2433C1.35302 20.8948 1.15591 20.4224 1.15529 19.9296V18.8809H4.01685C4.1181 19.2437 4.31124 19.5746 4.5778 19.8419C4.84436 20.1093 5.17542 20.3041 5.53933 20.4078V21.7903L5.54089 21.7884ZM15.108 21.7884H6.69735V20.0458C6.70792 20.0023 6.71354 19.9577 6.71409 19.9129C6.71424 19.8371 6.69938 19.762 6.67034 19.6919C6.64131 19.6218 6.59867 19.5581 6.54487 19.5043C6.49107 19.4506 6.42715 19.408 6.35678 19.3788C6.2864 19.3496 6.21093 19.3346 6.13469 19.3344C5.9264 19.3361 5.7223 19.2762 5.54829 19.1624C5.37428 19.0485 5.23819 18.8858 5.1573 18.6949C5.07642 18.504 5.05437 18.2935 5.09396 18.0901C5.13356 17.8868 5.233 17.6997 5.37969 17.5526C5.52637 17.4055 5.71368 17.3051 5.91785 17.2641C6.12202 17.223 6.33384 17.2432 6.52645 17.3221C6.71905 17.401 6.88375 17.535 6.99966 17.7071C7.11556 17.8792 7.17744 18.0817 7.17745 18.2889C7.17694 18.3649 7.19153 18.4402 7.22038 18.5106C7.24924 18.581 7.29179 18.645 7.34559 18.6989C7.39939 18.7529 7.46338 18.7958 7.53389 18.8251C7.6044 18.8544 7.68004 18.8696 7.75646 18.8697C7.89327 18.8184 8.04491 18.8227 8.17855 18.8817H15.106V21.7911L15.108 21.7884ZM20.8494 19.9296C20.8488 20.4224 20.6516 20.8948 20.3013 21.2433C19.9509 21.5917 19.4759 21.7877 18.9804 21.7884H16.2656V18.879H20.8486V19.9277L20.8494 19.9296ZM20.8494 17.7223H16.2664V13.2222H20.8494V17.7204V17.7223ZM17.9158 15.5557C18.0541 15.5564 18.1895 15.5162 18.3049 15.4403C18.4202 15.3644 18.5103 15.2561 18.5637 15.1292C18.6171 15.0023 18.6314 14.8625 18.6048 14.7275C18.5782 14.5925 18.5119 14.4683 18.4143 14.3709C18.3168 14.2734 18.1923 14.2069 18.0566 14.1798C17.921 14.1528 17.7804 14.1664 17.6525 14.2189C17.5247 14.2715 17.4154 14.3606 17.3385 14.4749C17.2617 14.5893 17.2207 14.7238 17.2207 14.8614C17.2205 14.9524 17.2384 15.0425 17.2732 15.1266C17.308 15.2107 17.3591 15.2872 17.4237 15.3517C17.4882 15.4162 17.5649 15.4674 17.6493 15.5024C17.7338 15.5374 17.8243 15.5555 17.9158 15.5557ZM6.62375 7.70746L10.1282 15.129C10.2054 15.2936 10.3283 15.433 10.4824 15.5306C10.6364 15.6282 10.8154 15.6801 10.9981 15.6801C11.1808 15.6801 11.3597 15.6282 11.5137 15.5306C11.6678 15.433 11.7907 15.2936 11.8679 15.129L15.3724 7.7094C15.3829 7.68711 15.3921 7.66422 15.4 7.64086C15.7118 6.918 15.8388 6.12959 15.7695 5.34604C15.7003 4.5625 15.437 3.8082 15.0032 3.15052C14.5693 2.49283 13.9785 1.95223 13.2834 1.57698C12.5883 1.20173 11.8106 1.00352 11.0197 1.00005C10.2288 0.996574 9.4493 1.18795 8.7509 1.55708C8.05249 1.92621 7.45687 2.4616 7.01723 3.11545C6.57759 3.7693 6.30762 4.52126 6.23142 5.30416C6.15521 6.08707 6.27516 6.87656 6.58053 7.60213C6.59221 7.63829 6.60666 7.6735 6.62375 7.70746ZM11.0019 2.11026C11.6085 2.11483 12.2044 2.26923 12.7361 2.55959C13.2677 2.84996 13.7185 3.26718 14.0479 3.77374C14.3772 4.2803 14.5748 4.86033 14.6229 5.46167C14.671 6.063 14.5681 6.6668 14.3234 7.21876L14.3128 7.24548L11 14.2584L7.68559 7.24355V7.23812C7.67936 7.21758 7.67195 7.19741 7.6634 7.17771C7.42701 6.62625 7.33123 6.02526 7.38457 5.42813C7.43791 4.831 7.63872 4.25621 7.96916 3.75483C8.2996 3.25344 8.74944 2.84098 9.27872 2.55408C9.808 2.26719 10.4003 2.11473 11.0031 2.11026H11.0019Z" fill="#FF5F1E"/>
  </g>
  <defs>
    <clipPath id="clip0_3_19">
      <rect width="22" height="22" fill="white"/>
    </clipPath>
  </defs>
</svg>