<svg xmlns="http://www.w3.org/2000/svg" width="22" height="22" viewBox="0 0 22 22" fill="none">
    <g clip-path="url(#clip0_15_198)">
      <path fill-rule="evenodd" clip-rule="evenodd" d="M21.2424 8.14109L21.2234 8.1225L18.8718 5.97097V5.63466C18.875 5.18407 18.6787 4.75073 18.3258 4.42968C17.9729 4.10864 17.4923 3.9261 16.9894 3.92211H16.6188L16.611 3.91359L13.1948 0.806597C12.9119 0.548187 12.5743 0.342915 12.2018 0.202785C11.8293 0.0626542 11.4293 -0.00952148 11.0253 -0.00952148C10.6213 -0.00952148 10.2213 0.0626542 9.84883 0.202785C9.47632 0.342915 9.13873 0.548187 8.8558 0.806597L7.25797 2.25219C7.13845 2.36153 7.07152 2.50849 7.07152 2.66153C7.07152 2.81458 7.13845 2.96153 7.25797 3.07088C7.31642 3.12467 7.38627 3.16748 7.46342 3.19679C7.54057 3.22611 7.62348 3.24133 7.70728 3.24159C7.79108 3.24184 7.87409 3.22711 7.95146 3.19826C8.02883 3.16942 8.099 3.12703 8.15786 3.07359L9.75786 1.62684C9.92354 1.47558 10.1212 1.35544 10.3393 1.27342C10.5574 1.19141 10.7916 1.14916 11.0281 1.14916C11.2647 1.14916 11.4988 1.19141 11.7169 1.27342C11.935 1.35544 12.1327 1.47558 12.2984 1.62684L14.8221 3.92327H5.01061C4.50773 3.92727 4.02714 4.1098 3.67426 4.43085C3.32137 4.75189 3.12501 5.18523 3.12824 5.63582V5.98956L0.836344 8.0636C0.295929 8.58436 -0.00347936 9.26964 -0.00127807 9.98072V19.2044C-0.00657632 19.9393 0.313723 20.646 0.88933 21.1695C1.46494 21.6931 2.24883 21.9906 3.06899 21.9968H18.9328C19.753 21.9907 20.5369 21.6932 21.1126 21.1697C21.6882 20.6461 22.0085 19.9393 22.003 19.2044V9.97956C22.0034 9.30489 21.7335 8.6525 21.2424 8.14109ZM3.12953 7.62307V8.27903C3.12732 8.35515 3.14214 8.4309 3.17312 8.50181C3.2041 8.57271 3.25062 8.63734 3.30993 8.69188C3.36923 8.74643 3.44013 8.78978 3.51844 8.81938C3.59674 8.84897 3.68087 8.86422 3.76586 8.86422C3.85085 8.86422 3.93497 8.84897 4.01328 8.81938C4.09158 8.78978 4.16248 8.74643 4.22179 8.69188C4.28109 8.63734 4.32761 8.57271 4.35859 8.50181C4.38958 8.4309 4.4044 8.35515 4.40218 8.27903V5.63582C4.40126 5.48996 4.46493 5.34973 4.57923 5.24587C4.69352 5.142 4.84912 5.08299 5.01191 5.08176H16.9903C17.153 5.08299 17.3086 5.14202 17.4228 5.24589C17.5371 5.34976 17.6006 5.49 17.5996 5.63582V8.27903C17.5996 8.43029 17.6667 8.57535 17.786 8.68231C17.9054 8.78927 18.0673 8.84936 18.2361 8.84936C18.4049 8.84936 18.5669 8.78927 18.6862 8.68231C18.8056 8.57535 18.8727 8.43029 18.8727 8.27903V7.60951L19.824 8.47392L13.907 13.8595L13.1992 13.2156C12.9165 12.9565 12.5789 12.7507 12.2063 12.6101C11.8336 12.4696 11.4333 12.3972 11.029 12.3972C10.6247 12.3972 10.2244 12.4696 9.85172 12.6101C9.47905 12.7507 9.14147 12.9565 8.85883 13.2156L8.15051 13.8595L2.21191 8.4557L3.12953 7.62307ZM20.7295 19.2044C20.7326 19.6344 20.5453 20.048 20.2085 20.3544C19.8718 20.6607 19.4131 20.8349 18.9332 20.8387H3.06813C2.58822 20.8349 2.12958 20.6607 1.79282 20.3544C1.45607 20.048 1.26869 19.6344 1.2718 19.2044V9.97956C1.27195 9.76722 1.31715 9.55685 1.40499 9.35963L7.24802 14.6747L2.96694 18.5679C2.8476 18.6774 2.7808 18.8243 2.7808 18.9774C2.7808 19.1304 2.8476 19.2774 2.96694 19.3869C3.02558 19.4407 3.0956 19.4833 3.1729 19.5125C3.25021 19.5416 3.33323 19.5567 3.4171 19.5567C3.50097 19.5567 3.58399 19.5416 3.6613 19.5125C3.7386 19.4833 3.80863 19.4407 3.86726 19.3869L9.75397 14.0304C9.9195 13.8789 10.1171 13.7585 10.3353 13.6764C10.5534 13.5942 10.7876 13.5519 11.0242 13.5519C11.2609 13.5519 11.4951 13.5942 11.7132 13.6764C11.9313 13.7585 12.129 13.8789 12.2945 14.0304L18.2889 19.4846C18.3475 19.5383 18.4175 19.581 18.4947 19.6101C18.572 19.6392 18.655 19.6543 18.7388 19.6543C18.8227 19.6543 18.9057 19.6392 18.9829 19.6101C19.0602 19.581 19.1302 19.5383 19.1888 19.4846C19.3083 19.3752 19.3752 19.2283 19.3752 19.0752C19.3752 18.9222 19.3083 18.7752 19.1888 18.6659L14.8052 14.6747L20.6093 9.39373C20.6884 9.58065 20.729 9.77888 20.7291 9.97878V19.2025L20.7295 19.2044ZM7.06467 7.99541H14.9349C15.0973 7.9835 15.2487 7.91732 15.359 7.81C15.4694 7.70269 15.5307 7.5621 15.5307 7.41617C15.5307 7.27024 15.4694 7.12965 15.359 7.02233C15.2487 6.91501 15.0973 6.84883 14.9349 6.83692H7.06467C6.90378 6.85039 6.75429 6.91717 6.64547 7.0242C6.53665 7.13123 6.47634 7.2708 6.47634 7.41559C6.47634 7.56037 6.53665 7.69994 6.64547 7.80697C6.75429 7.914 6.90378 7.98078 7.06467 7.99425V7.99541ZM15.5741 10.1961C15.575 10.1205 15.5593 10.0454 15.5278 9.97522C15.4963 9.90502 15.4497 9.84109 15.3905 9.78709C15.3314 9.73309 15.2609 9.69009 15.1832 9.66055C15.1055 9.63101 15.022 9.61552 14.9375 9.61497H7.06467C6.89616 9.61887 6.73602 9.68159 6.61838 9.78976C6.50074 9.89793 6.4349 10.043 6.4349 10.194C6.4349 10.345 6.50074 10.4901 6.61838 10.5983C6.73602 10.7064 6.89616 10.7692 7.06467 10.7731H14.9349C15.0192 10.7727 15.1025 10.7574 15.1802 10.7281C15.2579 10.6988 15.3283 10.6561 15.3875 10.6024C15.4468 10.5488 15.4936 10.4851 15.5254 10.4152C15.5572 10.3453 15.5733 10.2705 15.5728 10.195L15.5741 10.1961Z" fill="white"/>
    </g>
    <defs>
      <clipPath id="clip0_15_198">
        <rect width="22" height="22" fill="white"/>
      </clipPath>
    </defs>
  </svg>