<svg xmlns="http://www.w3.org/2000/svg" width="22" height="22" viewBox="0 0 22 22" fill="none">
    <g clip-path="url(#clip0_15_200)">
      <path fill-rule="evenodd" clip-rule="evenodd" d="M11.0012 6.448C11.1473 6.4361 11.2836 6.36996 11.383 6.2627C11.4824 6.15544 11.5376 6.01493 11.5376 5.86908C11.5376 5.72323 11.4824 5.58271 11.383 5.47545C11.2836 5.3682 11.1473 5.30205 11.0012 5.29015C10.863 5.29076 10.7277 5.25057 10.6125 5.17467C10.4973 5.09877 10.4073 4.99057 10.354 4.86377C10.3006 4.73698 10.2863 4.5973 10.3129 4.46242C10.3395 4.32754 10.4057 4.20353 10.5031 4.10611C10.6006 4.00868 10.725 3.94221 10.8605 3.91512C10.9959 3.88804 11.1365 3.90155 11.2642 3.95395C11.392 4.00635 11.5012 4.09528 11.5781 4.20948C11.655 4.32367 11.6961 4.458 11.6962 4.59544C11.6942 4.67234 11.7077 4.74886 11.7359 4.82049C11.7641 4.89212 11.8065 4.95741 11.8604 5.0125C11.9144 5.0676 11.9789 5.11139 12.0502 5.14129C12.1215 5.17119 12.1981 5.18659 12.2754 5.18659C12.3528 5.18659 12.4293 5.17119 12.5006 5.14129C12.5719 5.11139 12.6364 5.0676 12.6904 5.0125C12.7444 4.95741 12.7867 4.89212 12.8149 4.82049C12.8431 4.74886 12.8566 4.67234 12.8546 4.59544C12.8528 4.23127 12.7425 3.87581 12.5377 3.57391C12.3329 3.27201 12.0428 3.03721 11.704 2.89912C11.3652 2.76103 10.9928 2.72585 10.6339 2.79802C10.275 2.87019 9.94558 3.04647 9.68731 3.30462C9.42903 3.56277 9.25343 3.89123 9.18267 4.24853C9.11191 4.60583 9.14915 4.97598 9.28971 5.31225C9.43026 5.64852 9.66782 5.93586 9.97242 6.13799C10.277 6.34012 10.635 6.448 11.0012 6.448ZM18.9792 3.9379H18.0057C17.854 3.9418 17.7098 4.00449 17.6039 4.1126C17.4979 4.22071 17.4387 4.36568 17.4387 4.51663C17.4387 4.66758 17.4979 4.81256 17.6039 4.92067C17.7098 5.02878 17.854 5.09146 18.0057 5.09537H18.9792C19.4747 5.09598 19.9497 5.29201 20.3001 5.64046C20.6505 5.98892 20.8476 6.46134 20.8482 6.95413V11.1162H15.6854C15.609 11.1164 15.5333 11.1315 15.4628 11.1608C15.3923 11.1901 15.3282 11.233 15.2744 11.287C15.2206 11.3409 15.178 11.4049 15.1491 11.4753C15.1202 11.5457 15.1055 11.6211 15.106 11.6971V16.7699H8.2572C8.15748 16.3965 7.96065 16.0557 7.68649 15.7819C7.41232 15.5081 7.0705 15.3109 6.69539 15.2101V11.7916C6.6877 11.6267 6.62346 11.4695 6.51335 11.346C6.40325 11.2226 6.25394 11.1404 6.09029 11.1131H1.1549V6.95568C1.15551 6.46289 1.35263 5.99047 1.703 5.64201C2.05338 5.29356 2.52842 5.09753 3.02392 5.09692H3.97829C4.13003 5.09301 4.27422 5.03033 4.38015 4.92222C4.48608 4.81411 4.54536 4.66913 4.54536 4.51818C4.54536 4.36723 4.48608 4.22226 4.38015 4.11415C4.27422 4.00604 4.13003 3.94335 3.97829 3.93945H3.02392C2.22056 3.9415 1.45082 4.26037 0.883556 4.82612C0.316295 5.39186 -0.00216177 6.15827 -0.0019529 6.95723V18.9772C-0.00226491 19.7762 0.316146 20.5428 0.883419 21.1086C1.45069 21.6744 2.22049 21.9933 3.02392 21.9954H18.9807C19.7843 21.9934 20.5542 21.6746 21.1216 21.1087C21.6891 20.5429 22.0076 19.7763 22.0074 18.9772V6.95568C22.0075 6.15635 21.6887 5.38965 21.1209 4.82386C20.5532 4.25807 19.7829 3.93944 18.9792 3.9379ZM1.1549 12.2717H5.53893V15.221C5.17102 15.3261 4.83678 15.5242 4.56885 15.7961C4.30092 16.068 4.10845 16.4043 4.01022 16.7723H1.1549V12.2717ZM5.53893 20.8379H3.02237C2.52686 20.8373 2.05182 20.6413 1.70145 20.2928C1.35107 19.9444 1.15396 19.4719 1.15334 18.9792V17.9305H4.0149C4.11615 18.2933 4.30929 18.6241 4.57585 18.8915C4.8424 19.1588 5.17347 19.3537 5.53737 19.4574V20.8399L5.53893 20.8379ZM15.106 20.8379H6.69539V19.0953C6.70597 19.0518 6.71158 19.0073 6.71214 18.9625C6.71229 18.8867 6.69742 18.8116 6.66839 18.7415C6.63936 18.6714 6.59672 18.6076 6.54292 18.5539C6.48912 18.5002 6.4252 18.4575 6.35482 18.4284C6.28444 18.3992 6.20898 18.3841 6.13274 18.384C5.92445 18.3857 5.72035 18.3258 5.54634 18.2119C5.37232 18.0981 5.23624 17.9354 5.15535 17.7445C5.07446 17.5536 5.05242 17.3431 5.09201 17.1397C5.1316 16.9363 5.23105 16.7492 5.37774 16.6022C5.52442 16.4551 5.71173 16.3547 5.9159 16.3136C6.12006 16.2726 6.33189 16.2928 6.52449 16.3717C6.7171 16.4505 6.8818 16.5845 6.99771 16.7567C7.11361 16.9288 7.17549 17.1313 7.1755 17.3384C7.17499 17.4144 7.18958 17.4898 7.21843 17.5601C7.24728 17.6305 7.28983 17.6945 7.34363 17.7485C7.39744 17.8025 7.46143 17.8453 7.53194 17.8747C7.60245 17.904 7.67809 17.9191 7.75451 17.9193C7.89132 17.8679 8.04296 17.8722 8.1766 17.9313H15.1041V20.8406L15.106 20.8379ZM20.8474 18.9792C20.8468 19.4719 20.6497 19.9444 20.2993 20.2928C19.9489 20.6413 19.4739 20.8373 18.9784 20.8379H16.2636V17.9286H20.8466V18.9772L20.8474 18.9792ZM20.8474 16.7719H16.2644V12.2717H20.8474V16.7699V16.7719ZM17.9138 14.6053C18.0522 14.606 18.1876 14.5658 18.3029 14.4899C18.4183 14.4139 18.5083 14.3056 18.5617 14.1787C18.6151 14.0518 18.6295 13.912 18.6029 13.777C18.5763 13.642 18.51 13.5179 18.4124 13.4204C18.3148 13.3229 18.1903 13.2564 18.0547 13.2294C17.9191 13.2024 17.7784 13.216 17.6506 13.2685C17.5227 13.321 17.4134 13.4101 17.3366 13.5245C17.2597 13.6389 17.2187 13.7734 17.2188 13.9109C17.2186 14.0019 17.2364 14.092 17.2712 14.1762C17.306 14.2603 17.3572 14.3368 17.4217 14.4013C17.4863 14.4657 17.5629 14.5169 17.6474 14.5519C17.7318 14.5869 17.8224 14.6051 17.9138 14.6053ZM6.6218 6.75702L10.1262 14.1785C10.2034 14.3432 10.3263 14.4825 10.4804 14.5801C10.6345 14.6778 10.8134 14.7296 10.9961 14.7296C11.1788 14.7296 11.3577 14.6778 11.5118 14.5801C11.6659 14.4825 11.7888 14.3432 11.866 14.1785L15.3704 6.75896C15.381 6.73667 15.3902 6.71378 15.398 6.69042C15.7099 5.96756 15.8368 5.17915 15.7676 4.3956C15.6983 3.61206 15.435 2.85776 15.0012 2.20008C14.5674 1.54239 13.9765 1.00179 13.2814 0.626538C12.5863 0.25129 11.8086 0.0530796 11.0177 0.049607C10.2268 0.0461343 9.44735 0.237508 8.74894 0.606637C8.05054 0.975767 7.45492 1.51116 7.01528 2.16501C6.57564 2.81887 6.30567 3.57082 6.22946 4.35373C6.15326 5.13663 6.2732 5.92612 6.57858 6.65169C6.59026 6.68785 6.60471 6.72306 6.6218 6.75702ZM11 1.15983C11.6065 1.16439 12.2024 1.31879 12.7341 1.60915C13.2658 1.89952 13.7166 2.31674 14.0459 2.8233C14.3753 3.32986 14.5729 3.90989 14.621 4.51123C14.6691 5.11256 14.5661 5.71636 14.3214 6.26832L14.3109 6.29504L10.998 13.308L7.68364 6.29311V6.28769C7.6774 6.26715 7.66999 6.24698 7.66145 6.22728C7.42506 5.67581 7.32928 5.07482 7.38262 4.47769C7.43596 3.88056 7.63677 3.30577 7.96721 2.80439C8.29765 2.303 8.74749 1.89054 9.27677 1.60364C9.80605 1.31675 10.3984 1.16429 11.0012 1.15983H11Z" fill="white"/>
    </g>
    <defs>
      <clipPath id="clip0_15_200">
        <rect width="22" height="22" fill="white"/>
      </clipPath>
    </defs>
  </svg>