<svg xmlns="http://www.w3.org/2000/svg" width="12" height="17" viewBox="0 0 12 17" fill="none">
  <path fill-rule="evenodd" clip-rule="evenodd" d="M5.54012 8.77498C6.55176 8.79993 7.54902 8.56383 8.40429 8.0969C9.25955 7.62997 9.93391 6.95345 10.3411 6.15391C10.7482 5.35436 10.8697 4.46817 10.6899 3.60872C10.5101 2.74928 10.0372 1.95567 9.33174 1.32947C8.62629 0.703264 7.72036 0.272939 6.72988 0.0935627C5.7394 -0.0858139 4.70943 -0.00608349 3.77176 0.322551C2.83409 0.651185 2.03137 1.21378 1.46634 1.93833C0.9013 2.66288 0.599642 3.51644 0.599964 4.38978C0.582531 5.53627 1.0929 6.6419 2.01908 7.46403C2.94525 8.28616 4.21156 8.75764 5.54012 8.77498ZM5.54012 2.57324C5.95878 2.5631 6.37143 2.66095 6.72529 2.85429C7.07915 3.04762 7.35814 3.32765 7.52657 3.65856C7.69499 3.98947 7.7452 4.35621 7.67078 4.71188C7.59635 5.06755 7.40066 5.39597 7.10876 5.65514C6.81685 5.91432 6.44198 6.09246 6.03211 6.16678C5.62223 6.24111 5.19598 6.20824 4.80788 6.07237C4.41977 5.93651 4.08745 5.70383 3.85342 5.4041C3.61939 5.10436 3.4943 4.7512 3.49413 4.38978C3.4869 3.91492 3.69825 3.45697 4.08182 3.11641C4.46539 2.77586 4.98984 2.58051 5.54012 2.57324ZM7.53809 12.3539C8.55762 12.1468 9.52828 11.79 10.4076 11.299C10.7342 11.1114 10.9639 10.8219 11.0483 10.4913C11.1328 10.1607 11.0656 9.81474 10.8607 9.52603C10.763 9.38401 10.6331 9.26047 10.4787 9.16281C10.3244 9.06515 10.1488 8.99538 9.96247 8.95768C9.77614 8.91999 9.5829 8.91515 9.39435 8.94344C9.20579 8.97174 9.0258 9.03259 8.86515 9.12236C7.87476 9.67474 6.7206 9.96859 5.54135 9.96859C4.3621 9.96859 3.20794 9.67474 2.21755 9.12236C2.057 9.03261 1.8771 8.97178 1.68863 8.9435C1.50017 8.91521 1.30704 8.92006 1.1208 8.95776C0.934567 8.99546 0.759073 9.06522 0.604844 9.16287C0.450615 9.26052 0.320828 9.38404 0.223266 9.52603C0.0183775 9.81474 -0.0488944 10.1607 0.0355794 10.4913C0.120053 10.8219 0.3497 11.1114 0.676288 11.299C1.55536 11.7898 2.52557 12.1466 3.54461 12.3539L0.783388 14.8057C0.511423 15.05 0.359541 15.3757 0.359541 15.7145C0.359541 16.0533 0.511423 16.379 0.783388 16.6233C0.915931 16.7421 1.0749 16.8367 1.25079 16.9013C1.42667 16.9659 1.61585 16.9991 1.807 16.9991C1.99814 16.9991 2.18732 16.9659 2.3632 16.9013C2.53909 16.8367 2.69806 16.7421 2.8306 16.6233L5.53889 14.214L8.25456 16.6233C8.38681 16.7424 8.54562 16.8371 8.72143 16.9019C8.89723 16.9666 9.0864 17 9.27755 17C9.46869 17 9.65786 16.9666 9.83367 16.9019C10.0095 16.8371 10.1683 16.7424 10.3005 16.6233C10.5731 16.3792 10.7253 16.0534 10.7253 15.7145C10.7253 15.3755 10.5731 15.0498 10.3005 14.8057L7.53809 12.3539Z" fill="white"/>
</svg>