<svg xmlns="http://www.w3.org/2000/svg" width="22" height="22" viewBox="0 0 22 22" fill="none">
  <g clip-path="url(#clip0_15_174)">
    <path fill-rule="evenodd" clip-rule="evenodd" d="M12.8282 4.38298C13.5979 4.52804 14.3286 4.81242 14.9778 5.2196C15.627 5.62678 16.1818 6.14863 16.61 6.75484C17.0445 7.36048 17.345 8.03907 17.4942 8.75173C17.6434 9.4644 17.6383 10.1971 17.4793 10.908C17.4464 11.058 17.4791 11.2138 17.5704 11.3417C17.6616 11.4696 17.804 11.5592 17.9666 11.5911C18.0081 11.5991 18.0504 11.6032 18.0929 11.6031C18.2374 11.6025 18.3774 11.5559 18.4889 11.4712C18.6004 11.3865 18.6766 11.2689 18.7047 11.1384C18.8967 10.2786 18.9026 9.39247 18.7221 8.53059C18.5416 7.6687 18.1782 6.84803 17.6527 6.1155C17.1347 5.38231 16.4635 4.75117 15.6781 4.25876C14.8927 3.76636 14.0088 3.42251 13.0777 3.2472C12.9141 3.21675 12.744 3.24738 12.6048 3.33234C12.4657 3.41731 12.3689 3.54966 12.3359 3.70027C12.3028 3.85089 12.336 4.00743 12.4284 4.13546C12.5207 4.26349 12.6645 4.35253 12.8282 4.38298ZM11.846 7.1355C12.6867 7.29859 13.4231 7.76116 13.8944 8.42221C14.3658 9.08325 14.5337 9.88906 14.3616 10.6637C14.3279 10.8136 14.3602 10.9698 14.4515 11.0979C14.5428 11.226 14.6855 11.3155 14.8485 11.3468C14.89 11.3548 14.9323 11.3588 14.9747 11.3588C15.1193 11.3582 15.2592 11.3116 15.3707 11.2269C15.4822 11.1422 15.5585 11.0246 15.5866 10.8941C15.8253 9.81946 15.5923 8.70158 14.9385 7.7845C14.2846 6.86743 13.2631 6.22566 12.0968 5.99933C11.9336 5.96995 11.7645 6.00114 11.6261 6.08609C11.4878 6.17105 11.3917 6.30288 11.3585 6.45284C11.3254 6.60281 11.3581 6.75873 11.4494 6.88661C11.5408 7.01449 11.6833 7.10396 11.846 7.1355ZM16.506 13.4115C16.3387 13.274 16.1421 13.1701 15.9287 13.1064C15.7154 13.0427 15.4899 13.0205 15.2667 13.0413C15.0198 13.0793 14.7836 13.1619 14.5716 13.2844C14.3596 13.4069 14.1761 13.5668 14.0317 13.755C13.8432 13.9742 13.5229 14.3421 13.4114 14.4633C12.659 15.2811 12.1351 15.0081 11.7833 14.8017C10.7831 13.9715 9.87675 13.0504 9.078 12.0523C9.06816 12.0388 9.05748 12.0259 9.04602 12.0136L9.03382 11.9981C9.02507 11.9876 9.01609 11.9773 9.00688 11.9671C8.15382 11.0007 7.40927 9.95734 6.78462 8.85292C6.65375 8.48814 6.49385 7.95335 7.53576 7.47666C7.55301 7.4693 7.58036 7.45885 7.61613 7.44491C8.16196 7.253 8.66551 6.97171 9.10241 6.61466C9.36594 6.3883 9.54281 6.08955 9.6066 5.76304C9.67038 5.43653 9.61766 5.09979 9.4563 4.80314C8.67907 3.41345 7.80053 2.07376 6.8267 0.793248C6.69644 0.600785 6.52524 0.434537 6.3234 0.30449C6.12156 0.174443 5.89324 0.0832809 5.65215 0.0364781C5.41106 -0.0103247 5.16218 -0.011802 4.92045 0.032135C4.67873 0.0760719 4.44915 0.164516 4.2455 0.292156L4.93519 1.25755C5.00565 1.21036 5.08665 1.17822 5.17231 1.16349C5.25797 1.14875 5.34612 1.15179 5.43034 1.17238C5.51455 1.19297 5.59272 1.2306 5.65914 1.28251C5.72555 1.33443 5.77854 1.39932 5.81425 1.47247C6.74496 2.6981 7.58604 3.97934 8.33192 5.30772C8.38226 5.3871 8.3986 5.48091 8.37774 5.5708C8.35688 5.66068 8.30033 5.74017 8.21914 5.7937C7.89332 6.04113 7.52536 6.23739 7.1301 6.37457C7.08126 6.39337 7.03286 6.41313 6.98493 6.43382C6.04864 6.86249 5.04923 7.69855 5.61058 9.24829C5.61774 9.26843 5.62657 9.28702 5.63583 9.30754C6.30495 10.5092 7.10886 11.6432 8.03441 12.6909L8.04998 12.7091C8.05755 12.7191 8.06555 12.7288 8.07354 12.7381C8.94081 13.8243 9.92965 14.8238 11.0238 15.7199C11.0422 15.7339 11.0616 15.7468 11.0819 15.7586C12.5707 16.6361 13.6883 15.9456 14.3641 15.213C14.5026 15.0627 14.8666 14.643 15.0109 14.4753L15.0277 14.4555C15.1186 14.3261 15.2573 14.2314 15.4182 14.1887C15.5315 14.1901 15.6395 14.2327 15.7187 14.3072C16.8818 15.1674 17.9829 16.0962 19.0148 17.088C19.0312 17.1072 19.0488 17.1256 19.0674 17.143C19.6658 17.694 19.4794 18.0236 19.418 18.1316C19.341 18.2676 19.3256 18.426 19.375 18.5724C19.4244 18.7187 19.5347 18.8412 19.6818 18.9131C19.7709 18.9568 19.8704 18.9795 19.9713 18.9793C20.0857 18.9793 20.1978 18.9504 20.2955 18.8958C20.3933 18.8412 20.4728 18.7629 20.5255 18.6695C20.7271 18.3132 21.0726 17.3784 19.9764 16.3461C19.3123 15.5851 17.0766 13.8425 16.506 13.4115ZM8.19305 12.8307C8.23816 12.8573 8.28681 12.8785 8.33781 12.8938C8.28671 12.8779 8.23805 12.8561 8.19305 12.8287V12.8307ZM14.0548 0.520242C13.8914 0.489688 13.7215 0.520135 13.5824 0.604885C13.4434 0.689634 13.3466 0.821745 13.3134 0.972153C13.2802 1.12256 13.3133 1.27895 13.4054 1.40691C13.4975 1.53487 13.641 1.62392 13.8045 1.65447C16.0672 2.09335 18.0493 3.33842 19.3177 5.11773C20.5862 6.89704 21.038 9.06599 20.5743 11.1508C20.5407 11.3008 20.5731 11.4569 20.6644 11.585C20.7556 11.713 20.8983 11.8025 21.0612 11.8339C21.1027 11.8419 21.145 11.8459 21.1874 11.8459C21.332 11.8453 21.4719 11.7987 21.5835 11.714C21.695 11.6293 21.7712 11.5117 21.7993 11.3812C22.3295 8.99634 21.8127 6.51527 20.3616 4.47991C18.9106 2.44456 16.6432 1.02033 14.0548 0.518306V0.520242ZM18.9711 19.6237C18.9652 19.6037 18.9582 19.5841 18.95 19.5648C18.9437 19.5485 18.9391 19.5323 18.9315 19.5164C18.9239 19.5005 18.9126 19.485 18.9029 19.4695C18.8926 19.4512 18.881 19.4335 18.8684 19.4165C18.8684 19.4142 18.8659 19.4118 18.8642 19.4095C18.8524 19.3948 18.8381 19.3836 18.8251 19.3708C18.812 19.358 18.8036 19.3456 18.791 19.3344L16.0267 16.9296C15.967 16.8776 15.8968 16.837 15.8199 16.8101C15.7431 16.7832 15.6612 16.7705 15.5791 16.7729C15.4969 16.7753 15.4161 16.7926 15.3412 16.8239C15.2664 16.8552 15.199 16.8998 15.143 16.9552C15.0293 17.0673 14.9685 17.2163 14.9737 17.3696C14.9789 17.5229 15.0497 17.668 15.1708 17.7734L17.3783 19.6941C16.19 20.4373 15.162 20.8419 14.4407 20.8419C14.1113 20.8437 13.7864 20.7723 13.4935 20.6336C13.4767 20.6232 13.4593 20.6136 13.4413 20.6049C10.5586 19.069 8.02565 17.0348 5.98173 14.6143L5.77512 14.3676C3.73782 11.9296 2.22997 9.1532 1.33396 6.19024C1.33396 6.18366 1.32891 6.17359 1.32639 6.16662C1.23203 5.8846 1.22838 5.58347 1.31587 5.29958C1.66163 4.49414 2.16034 3.75172 2.78868 3.10702L4.45422 5.60357C4.50998 5.68744 4.58821 5.75673 4.68142 5.80481C4.77463 5.85288 4.87969 5.87812 4.98653 5.87812C5.10263 5.87817 5.21638 5.8481 5.31476 5.79138C5.45591 5.71008 5.55643 5.58074 5.59442 5.43154C5.63241 5.28234 5.60479 5.12537 5.51759 4.99482L3.45565 1.90347C3.42238 1.85534 3.38154 1.81202 3.33446 1.77491C3.32647 1.76677 3.32057 1.75748 3.31174 1.74935C3.2533 1.69618 3.184 1.6542 3.10783 1.62583C3.03166 1.59746 2.95013 1.58326 2.86796 1.58405C2.7858 1.58485 2.70461 1.60061 2.62911 1.63045C2.5536 1.66028 2.48526 1.70359 2.42805 1.75787C1.43245 2.64644 0.652695 3.71902 0.140145 4.90498C-0.0384938 5.42084 -0.043042 5.9744 0.1271 6.49268C1.06949 9.60242 2.65187 12.5168 4.78833 15.0774L4.99495 15.3233C7.09896 17.828 10.1746 20.2963 12.8362 21.6168C13.3252 21.871 13.8782 22.0026 14.4399 21.9982C15.5819 21.9982 17.0274 21.3996 18.7358 20.2169C18.755 20.2028 18.7732 20.1876 18.7901 20.1712C18.799 20.1635 18.8091 20.1577 18.8175 20.1492L18.8213 20.1449C18.8406 20.1247 18.8584 20.1032 18.8743 20.0806C18.8814 20.0709 18.8903 20.062 18.8966 20.0523C18.9098 20.0308 18.9215 20.0084 18.9315 19.9854C18.9374 19.9734 18.9446 19.9621 18.9496 19.9497C18.9572 19.9277 18.9635 19.9054 18.9686 19.8827C18.9719 19.8692 18.977 19.8556 18.9791 19.8421C18.9824 19.8187 18.9841 19.7952 18.9841 19.7716C18.9841 19.7584 18.9866 19.7449 18.9841 19.7329C18.9826 19.7097 18.9793 19.6867 18.9744 19.6639C18.9754 19.6498 18.9743 19.6356 18.9711 19.6217V19.6237Z" fill="white"/>
  </g>
  <defs>
    <clipPath id="clip0_15_174">
      <rect width="22" height="22" fill="white"/>
    </clipPath>
  </defs>
</svg>