<svg xmlns="http://www.w3.org/2000/svg" width="22" height="22" viewBox="0 0 22 22" fill="none">
  <path fill-rule="evenodd" clip-rule="evenodd" d="M12.8282 4.38292C13.5979 4.52798 14.3286 4.81236 14.9778 5.21954C15.627 5.62672 16.1818 6.14857 16.61 6.75478C17.0445 7.36042 17.345 8.03901 17.4942 8.75167C17.6434 9.46434 17.6383 10.1971 17.4793 10.908C17.4464 11.0579 17.4791 11.2138 17.5704 11.3417C17.6616 11.4696 17.804 11.5592 17.9666 11.591C18.0081 11.5991 18.0504 11.6031 18.0929 11.6031C18.2374 11.6025 18.3774 11.5559 18.4889 11.4712C18.6004 11.3865 18.6766 11.2689 18.7047 11.1384C18.8967 10.2786 18.9026 9.39241 18.7221 8.53052C18.5416 7.66864 18.1782 6.84797 17.6527 6.11544C17.1347 5.38225 16.4635 4.75111 15.6781 4.2587C14.8927 3.7663 14.0088 3.42245 13.0777 3.24714C12.9141 3.21669 12.744 3.24732 12.6048 3.33228C12.4657 3.41725 12.3689 3.5496 12.3359 3.70021C12.3028 3.85083 12.336 4.00737 12.4284 4.1354C12.5207 4.26343 12.6645 4.35247 12.8282 4.38292ZM11.846 7.13544C12.6867 7.29853 13.4231 7.7611 13.8944 8.42215C14.3658 9.08319 14.5337 9.88899 14.3616 10.6636C14.3279 10.8136 14.3602 10.9698 14.4515 11.0978C14.5428 11.2259 14.6855 11.3154 14.8485 11.3467C14.89 11.3547 14.9323 11.3587 14.9747 11.3587C15.1193 11.3581 15.2592 11.3115 15.3707 11.2268C15.4822 11.1421 15.5585 11.0245 15.5866 10.894C15.8253 9.8194 15.5923 8.70152 14.9385 7.78444C14.2846 6.86737 13.2631 6.2256 12.0968 5.99927C11.9336 5.96989 11.7645 6.00107 11.6261 6.08603C11.4878 6.17099 11.3917 6.30282 11.3585 6.45278C11.3254 6.60274 11.3581 6.75867 11.4494 6.88655C11.5408 7.01443 11.6833 7.1039 11.846 7.13544ZM16.506 13.4115C16.3387 13.274 16.1421 13.1701 15.9287 13.1063C15.7154 13.0426 15.4899 13.0204 15.2667 13.0413C15.0198 13.0792 14.7836 13.1618 14.5716 13.2843C14.3596 13.4068 14.1761 13.5668 14.0317 13.755C13.8432 13.9741 13.5229 14.342 13.4114 14.4632C12.659 15.2811 12.1351 15.0081 11.7833 14.8017C10.7831 13.9715 9.87676 13.0503 9.078 12.0523C9.06816 12.0388 9.05748 12.0259 9.04602 12.0135L9.03382 11.998C9.02507 11.9875 9.01609 11.9772 9.00688 11.9671C8.15382 11.0007 7.40927 9.95728 6.78462 8.85286C6.65375 8.48807 6.49385 7.95329 7.53576 7.4766C7.55301 7.46924 7.58036 7.45879 7.61613 7.44484C8.16196 7.25294 8.66551 6.97165 9.10241 6.6146C9.36594 6.38824 9.54281 6.08948 9.6066 5.76298C9.67038 5.43647 9.61766 5.09973 9.4563 4.80308C8.67907 3.41339 7.80053 2.0737 6.8267 0.793187C6.69644 0.600724 6.52524 0.434476 6.3234 0.304429C6.12156 0.174382 5.89324 0.0832198 5.65215 0.0364171C5.41106 -0.0103857 5.16218 -0.011863 4.92045 0.0320739C4.67873 0.0760109 4.44915 0.164455 4.2455 0.292095L4.93519 1.25749C5.00565 1.2103 5.08665 1.17816 5.17231 1.16343C5.25797 1.14869 5.34612 1.15173 5.43034 1.17232C5.51455 1.19291 5.59272 1.23054 5.65914 1.28245C5.72555 1.33436 5.77854 1.39926 5.81425 1.47241C6.74496 2.69803 7.58604 3.97928 8.33192 5.30766C8.38226 5.38704 8.3986 5.48085 8.37774 5.57074C8.35688 5.66062 8.30033 5.74011 8.21914 5.79364C7.89332 6.04107 7.52536 6.23733 7.1301 6.37451C7.08126 6.39331 7.03286 6.41307 6.98493 6.43376C6.04864 6.86243 5.04923 7.69849 5.61058 9.24823C5.61774 9.26837 5.62657 9.28696 5.63583 9.30748C6.30495 10.5091 7.10886 11.6431 8.03441 12.6908L8.04998 12.709C8.05755 12.7191 8.06555 12.7288 8.07354 12.7381C8.94081 13.8243 9.92965 14.8237 11.0238 15.7198C11.0422 15.7338 11.0616 15.7468 11.0819 15.7585C12.5707 16.636 13.6883 15.9456 14.3641 15.2129C14.5026 15.0627 14.8666 14.6429 15.0109 14.4752L15.0277 14.4555C15.1186 14.3261 15.2573 14.2313 15.4182 14.1887C15.5315 14.1901 15.6395 14.2327 15.7187 14.3072C16.8818 15.1673 17.9829 16.0962 19.0148 17.0879C19.0312 17.1072 19.0488 17.1255 19.0674 17.1429C19.6658 17.694 19.4794 18.0235 19.418 18.1316C19.341 18.2675 19.3256 18.4259 19.375 18.5723C19.4244 18.7187 19.5347 18.8412 19.6818 18.913C19.7709 18.9567 19.8704 18.9794 19.9713 18.9792C20.0857 18.9792 20.1978 18.9504 20.2955 18.8957C20.3933 18.8411 20.4728 18.7628 20.5255 18.6694C20.7271 18.3132 21.0726 17.3784 19.9764 16.346C19.3123 15.5851 17.0766 13.8425 16.506 13.4115ZM8.19305 12.8306C8.23816 12.8573 8.28681 12.8785 8.33781 12.8937C8.28671 12.8779 8.23805 12.856 8.19305 12.8287V12.8306ZM14.0548 0.520181C13.8914 0.489627 13.7215 0.520074 13.5824 0.604823C13.4434 0.689573 13.3466 0.821684 13.3134 0.972092C13.2802 1.1225 13.3133 1.27889 13.4054 1.40685C13.4975 1.53481 13.641 1.62386 13.8045 1.65441C16.0672 2.09329 18.0493 3.33836 19.3177 5.11767C20.5862 6.89698 21.038 9.06593 20.5743 11.1508C20.5407 11.3007 20.5731 11.4568 20.6644 11.5849C20.7556 11.7129 20.8983 11.8025 21.0612 11.8338C21.1027 11.8418 21.145 11.8459 21.1874 11.8459C21.332 11.8453 21.4719 11.7987 21.5835 11.714C21.695 11.6293 21.7712 11.5117 21.7993 11.3812C22.3295 8.99628 21.8127 6.51521 20.3616 4.47985C18.9106 2.4445 16.6432 1.02027 14.0548 0.518245V0.520181ZM18.9711 19.6236C18.9652 19.6037 18.9582 19.584 18.95 19.5647C18.9437 19.5485 18.9391 19.5322 18.9315 19.5163C18.9239 19.5005 18.9126 19.485 18.9029 19.4695C18.8926 19.4512 18.881 19.4335 18.8684 19.4164C18.8684 19.4141 18.8659 19.4118 18.8642 19.4095C18.8524 19.3947 18.8381 19.3835 18.8251 19.3707C18.812 19.358 18.8036 19.3456 18.791 19.3343L16.0267 16.9296C15.967 16.8775 15.8968 16.8369 15.8199 16.81C15.7431 16.7831 15.6612 16.7705 15.5791 16.7728C15.4969 16.7752 15.4161 16.7926 15.3412 16.8238C15.2664 16.8551 15.199 16.8997 15.143 16.9551C15.0293 17.0673 14.9685 17.2162 14.9737 17.3695C14.9789 17.5228 15.0497 17.668 15.1708 17.7734L17.3783 19.6941C16.19 20.4372 15.162 20.8419 14.4407 20.8419C14.1113 20.8437 13.7864 20.7722 13.4935 20.6335C13.4767 20.6231 13.4593 20.6135 13.4413 20.6049C10.5586 19.0689 8.02565 17.0347 5.98173 14.6142L5.77512 14.3676C3.73782 11.9295 2.22997 9.15314 1.33396 6.19018C1.33396 6.1836 1.32891 6.17353 1.32639 6.16656C1.23203 5.88454 1.22838 5.58341 1.31587 5.29952C1.66163 4.49408 2.16034 3.75166 2.78868 3.10696L4.45422 5.60351C4.50998 5.68738 4.58821 5.75667 4.68142 5.80474C4.77463 5.85282 4.87969 5.87806 4.98653 5.87806C5.10263 5.87811 5.21638 5.84804 5.31476 5.79132C5.45591 5.71002 5.55643 5.58068 5.59442 5.43148C5.63241 5.28228 5.60479 5.12531 5.51759 4.99476L3.45565 1.90341C3.42238 1.85528 3.38154 1.81196 3.33446 1.77485C3.32647 1.76671 3.32057 1.75742 3.31174 1.74929C3.2533 1.69612 3.184 1.65414 3.10783 1.62577C3.03166 1.5974 2.95013 1.5832 2.86796 1.58399C2.7858 1.58479 2.70461 1.60055 2.62911 1.63039C2.5536 1.66022 2.48526 1.70353 2.42805 1.75781C1.43245 2.64638 0.652695 3.71896 0.140145 4.90492C-0.0384938 5.42077 -0.043042 5.97434 0.1271 6.49262C1.06949 9.60236 2.65187 12.5167 4.78833 15.0774L4.99495 15.3233C7.09896 17.828 10.1746 20.2962 12.8362 21.6167C13.3252 21.871 13.8782 22.0025 14.4399 21.9982C15.5819 21.9982 17.0274 21.3995 18.7358 20.2169C18.755 20.2028 18.7732 20.1875 18.7901 20.1712C18.799 20.1634 18.8091 20.1576 18.8175 20.1491L18.8213 20.1448C18.8406 20.1246 18.8584 20.1031 18.8743 20.0806C18.8814 20.0709 18.8903 20.062 18.8966 20.0523C18.9098 20.0307 18.9215 20.0083 18.9315 19.9853C18.9374 19.9733 18.9446 19.9621 18.9496 19.9497C18.9572 19.9277 18.9635 19.9053 18.9686 19.8827C18.9719 19.8691 18.977 19.8556 18.9791 19.842C18.9824 19.8186 18.9841 19.7951 18.9841 19.7715C18.9841 19.7584 18.9866 19.7448 18.9841 19.7328C18.9826 19.7097 18.9793 19.6866 18.9744 19.6639C18.9754 19.6497 18.9743 19.6355 18.9711 19.6217V19.6236Z" fill="black"/>
</svg>