<svg xmlns="http://www.w3.org/2000/svg" width="19" height="15" viewBox="0 0 19 15" fill="none">
  <path fill-rule="evenodd" clip-rule="evenodd" d="M17.5403 0.120713L0.707493 6.13971C-0.212611 6.39071 -0.183858 7.24971 0.497373 7.45571L4.71525 8.69971L6.32875 13.3717C6.5245 13.8827 6.68485 14.0717 7.01994 14.0797C7.18822 14.0727 7.35251 14.0311 7.50028 13.958C7.64805 13.8848 7.77539 13.7821 7.87258 13.6577C8.30056 13.2787 8.95304 12.6807 9.98373 11.7347L14.3697 14.7957C15.177 15.2157 15.7598 14.9957 15.9611 14.0877L18.7115 1.23871C19.0067 0.122713 18.3122 -0.207287 17.5403 0.120713ZM5.37547 8.41371L14.9636 2.73171C15.4369 2.43171 15.5851 2.76671 15.3717 2.99771L7.40921 9.75771L7.00114 13.1317L5.37547 8.41371Z" fill="white"/>
</svg>