<svg width="22" height="22" viewBox="0 0 22 22" fill="none" xmlns="http://www.w3.org/2000/svg">
<g clip-path="url(#clip0_3_22)">
<path fill-rule="evenodd" clip-rule="evenodd" d="M11.0011 0.00228922C8.81305 -0.00798414 6.67113 0.628276 4.84676 1.83045C3.0224 3.03263 1.59771 4.74662 0.753193 6.75526C-0.0913196 8.76389 -0.317643 10.9768 0.1029 13.1135C0.523442 15.2503 1.57192 17.2147 3.1155 18.758C4.65907 20.3012 6.62827 21.3538 8.77358 21.7824C10.9189 22.2109 13.1438 21.9962 15.1663 21.1654C17.1889 20.3345 18.9181 18.925 20.1348 17.1153C21.3516 15.3056 22.0011 13.1773 22.0011 11C22.0047 8.09111 20.8485 5.29963 18.7864 3.2379C16.7242 1.17617 13.9244 0.0125418 11.0011 0.00228922ZM11.0011 20.8402C9.04332 20.8495 7.12679 20.2802 5.49437 19.2046C3.86196 18.129 2.58715 16.5955 1.83145 14.7982C1.07575 13.001 0.873188 11.021 1.24942 9.10912C1.62565 7.19723 2.56375 5.43949 3.94485 4.05862C5.32595 2.67775 7.0879 1.7359 9.00744 1.3524C10.927 0.968902 12.9177 1.16102 14.7274 1.9044C16.5372 2.64779 18.0844 3.90899 19.1731 5.5282C20.2618 7.14741 20.843 9.05177 20.843 11C20.8462 13.6026 19.8118 16.1002 17.9668 17.9449C16.1217 19.7896 13.6166 20.8311 11.0011 20.8402ZM11.0011 4.86837C11.0775 4.86822 11.1532 4.85306 11.2236 4.82376C11.2941 4.79446 11.3581 4.75159 11.4119 4.69762C11.4657 4.64365 11.5083 4.57964 11.5372 4.50927C11.5661 4.43889 11.5807 4.36353 11.5802 4.28751V2.56002C11.5822 2.48312 11.5687 2.4066 11.5405 2.33497C11.5124 2.26334 11.47 2.19805 11.4161 2.14296C11.3621 2.08786 11.2976 2.04407 11.2264 2.01417C11.1552 1.98427 11.0787 1.96887 11.0013 1.96887C10.924 1.96887 10.8475 1.98427 10.7763 2.01417C10.7051 2.04407 10.6406 2.08786 10.5866 2.14296C10.5327 2.19805 10.4903 2.26334 10.4621 2.33497C10.434 2.4066 10.4205 2.48312 10.4225 2.56002V4.28751C10.4221 4.36346 10.4367 4.43875 10.4656 4.50906C10.4945 4.57937 10.537 4.64331 10.5908 4.69723C10.6445 4.75116 10.7084 4.794 10.7789 4.8233C10.8493 4.8526 10.9248 4.86817 11.0011 4.86837ZM10.7081 11.4972C10.7167 11.5022 10.7248 11.5073 10.7334 11.5115C10.7704 11.5313 10.8096 11.5469 10.8502 11.558C10.856 11.558 10.8618 11.5607 10.8681 11.5622C10.9114 11.5728 10.9558 11.5784 11.0004 11.5789C11.0438 11.5785 11.087 11.5733 11.1292 11.5634L11.1416 11.5607C11.1821 11.5506 11.2212 11.5361 11.2584 11.5173C11.2654 11.5138 11.2724 11.5107 11.279 11.5069C11.2856 11.503 11.2934 11.5003 11.3004 11.496L17.4246 7.80909C17.5563 7.72937 17.6509 7.60109 17.6878 7.45224C17.7248 7.30338 17.7011 7.14602 17.6219 7.01447C17.5829 6.94941 17.5314 6.89267 17.4703 6.84751C17.4092 6.80235 17.3397 6.76967 17.2658 6.75135C17.192 6.73303 17.1152 6.72943 17.0399 6.74076C16.9646 6.75209 16.8924 6.77812 16.8273 6.81736L11.0175 10.3149L6.2534 7.13219C6.125 7.04751 5.96806 7.01706 5.8171 7.04752C5.66613 7.07799 5.53352 7.16688 5.44842 7.29464C5.36332 7.4224 5.33271 7.57857 5.36333 7.72879C5.39394 7.87901 5.48328 8.01097 5.61167 8.09565L10.6797 11.4821C10.6898 11.4871 10.6988 11.4914 10.7081 11.4968V11.4972ZM4.28969 10.4214H2.56182C2.41018 10.4253 2.26606 10.488 2.16019 10.5961C2.05432 10.7042 1.99508 10.8492 1.99508 11.0002C1.99508 11.1511 2.05432 11.2961 2.16019 11.4042C2.26606 11.5123 2.41018 11.575 2.56182 11.5789H4.28969C4.444 11.5789 4.59198 11.5179 4.70109 11.4093C4.81019 11.3008 4.87149 11.1535 4.87149 11C4.87149 10.8464 4.81019 10.6992 4.70109 10.5906C4.59198 10.482 4.444 10.421 4.28969 10.421V10.4214ZM11.0011 17.1323C10.8473 17.1327 10.7 17.1939 10.5915 17.3024C10.4829 17.4109 10.4222 17.5578 10.4225 17.7109V19.4384C10.4205 19.5153 10.434 19.5918 10.4621 19.6634C10.4903 19.735 10.5327 19.8003 10.5866 19.8554C10.6406 19.9105 10.7051 19.9543 10.7763 19.9842C10.8475 20.0141 10.924 20.0295 11.0013 20.0295C11.0787 20.0295 11.1552 20.0141 11.2264 19.9842C11.2976 19.9543 11.3621 19.9105 11.4161 19.8554C11.47 19.8003 11.5124 19.735 11.5405 19.6634C11.5687 19.5918 11.5822 19.5153 11.5802 19.4384V17.7109C11.5804 17.635 11.5656 17.5599 11.5366 17.4897C11.5076 17.4196 11.465 17.3558 11.4112 17.302C11.3575 17.2483 11.2936 17.2056 11.2232 17.1764C11.1528 17.1472 11.0774 17.1325 11.0011 17.1323ZM19.4409 10.4214H17.7134C17.5617 10.4253 17.4176 10.488 17.3118 10.5961C17.2059 10.7042 17.1466 10.8492 17.1466 11.0002C17.1466 11.1511 17.2059 11.2961 17.3118 11.4042C17.4176 11.5123 17.5617 11.575 17.7134 11.5789H19.4409C19.5952 11.5789 19.7431 11.5179 19.8523 11.4093C19.9614 11.3008 20.0227 11.1535 20.0227 11C20.0227 10.8464 19.9614 10.6992 19.8523 10.5906C19.7431 10.482 19.5952 10.421 19.4409 10.421V10.4214Z" fill="#FF5F1E"/>
</g>
<defs>
<clipPath id="clip0_3_22">
<rect width="22" height="22" fill="white"/>
</clipPath>
</defs>
</svg>
