<svg xmlns="http://www.w3.org/2000/svg" width="19" height="11" viewBox="0 0 19 11" fill="none">
    <path fill-rule="evenodd" clip-rule="evenodd" d="M9.04906 0.0268768C8.2557 -0.0479043 7.45439 0.0337877 6.69689 0.266677C6.37464 0.425077 6.12766 0.783677 6.2782 0.801277C6.60756 0.836008 6.90893 0.99098 7.11675 1.23248C7.31255 1.63934 7.40782 2.08224 7.39548 2.52828C7.39548 2.52828 7.55661 5.00328 7.00267 5.31458C6.62162 5.52578 6.10179 5.09458 4.97392 3.12778C4.59196 2.43721 4.25498 1.72568 3.96484 0.997077C3.91454 0.875774 3.83388 0.767516 3.72963 0.681377C3.59965 0.593467 3.45141 0.532012 3.29447 0.500977L0.604766 0.517477C0.404473 0.521093 0.211517 0.588625 0.0578867 0.708877C0.021594 0.784787 0.00195712 0.866737 0.000138974 0.949873C-0.00167917 1.03301 0.0143584 1.11564 0.0473019 1.19288C0.0473019 1.19288 2.15132 6.19018 4.53524 8.70808C5.09817 9.36339 5.80714 9.89598 6.61272 10.2687C7.4183 10.6415 8.30111 10.8454 9.1996 10.8663H10.3263C10.5165 10.8447 10.6946 10.7677 10.8355 10.6463C10.941 10.4974 10.9956 10.3221 10.992 10.1436C10.992 10.1436 10.9696 8.61348 11.6682 8.38358C12.3668 8.15368 13.2406 9.86528 14.1803 10.5187C14.351 10.659 14.5502 10.7657 14.7661 10.8322C14.9819 10.8988 15.2099 10.9238 15.4364 10.9059L17.9485 10.8674C18.0951 10.881 18.2429 10.8546 18.3737 10.7912C18.5046 10.7279 18.613 10.6303 18.6857 10.5105C18.7585 10.3906 18.7924 10.2536 18.7835 10.116C18.7745 9.9784 18.7231 9.84622 18.6353 9.73548C18.1514 8.91174 17.5219 8.17052 16.7736 7.54318C15.1941 6.06148 15.4046 6.30128 17.304 3.73498C18.4577 2.17078 18.9199 1.21598 18.7753 0.802377C18.6513 0.67871 18.4949 0.587472 18.3217 0.537695C18.1484 0.487919 17.9642 0.481328 17.7874 0.518577L14.9577 0.535077C14.8318 0.520754 14.7042 0.543844 14.5931 0.601077C14.4846 0.683766 14.3998 0.790353 14.3462 0.911277C14.0528 1.67945 13.703 2.42776 13.2994 3.15088C12.0434 5.31898 11.5353 5.43998 11.3307 5.30358C10.852 4.98788 10.9708 4.03858 10.9708 3.36868C10.9708 1.25998 11.2883 0.387677 10.3592 0.158877C9.93207 0.0535612 9.49039 0.00906139 9.04906 0.0268768Z" fill="white"/>
  </svg>